<svg xmlns="http://www.w3.org/2000/svg" viewBox="0 0 512 640" x="0px" y="0px"><title>Business &amp;amp; Finance Vol.2</title><g><path d="M451.09,383.53H316.8a5,5,0,0,1-3.59-1.52L293,361.12a10.43,10.43,0,0,1-3.11-6.78c-.26-3.66,1.26-7.35,4.53-11,8.34-9.31,65.74-83.39,66.32-84.14l.23-.27a32.42,32.42,0,0,0,4.78-7H319.53c0,2-.07,4.55-.07,7.47a9.74,9.74,0,0,1-3.06,7.14c-5.07,4.9-15.11,4.88-17.32,4.8H282c-8,0-13.34-5.82-15.24-9.26l-.06-.11c-.12-.23-12-23.07-15.88-30.73-4.62-9,3.27-18.36,8.72-22.5,3.66-3,67.58-55.25,73.4-59.53,8.36-6.12,16.23-6.08,17.94-6h13.94a4.42,4.42,0,0,0,2.11-.35c-.05-.21,0-.15,0-.5V120a9,9,0,0,1,3.56-7.13c1.73-1.24,4.79-2.38,9.51-.78,5.72,1.94,24.69,10.81,43.54,28.32,26.07,24.23,43.11,56.53,49.28,93.43,14.6,87.33-16,144.73-17.3,147.13A5,5,0,0,1,451.09,383.53Zm-132.18-10H448c5.62-12,27.24-64.49,14.93-138.09-14.29-85.48-82.45-112.53-86-113.88v20.6a10.18,10.18,0,0,1-2.44,7.29c-1.5,1.72-4.41,3.77-9.67,3.77h-14.1l-.41,0c-.17,0-5.54-.26-11.45,4.07-4.53,3.32-49.77,40.21-73.06,59.26l-.15.12c-2.12,1.61-7.48,7-5.93,10,3.79,7.4,15,29,15.81,30.6.22.35,2.55,4.06,6.47,4.06h17.37c4.48.14,9.24-1,10.13-2,0-7.47.19-12.4.2-12.61a5,5,0,0,1,5-4.81h51.29c6,0,8.45,2.74,9.48,5.05,2.86,6.37-3.79,15-6.93,18.5-3.55,4.59-58.19,75.09-66.68,84.55-1.76,2-2.13,3.3-2,3.8.09.06-.05,0,.19.24Zm-19.24-19.81Zm67.54-101.67Zm-.28-109Zm10-23.07v0Z"/><path d="M481,414.5H293a15,15,0,0,1-15-15v-11a15,15,0,0,1,15-15H481a15,15,0,0,1,15,15v11A15,15,0,0,1,481,414.5Zm-188-31a5,5,0,0,0-5,5v11a5,5,0,0,0,5,5H481a5,5,0,0,0,5-5v-11a5,5,0,0,0-5-5Z"/><path d="M496.27,478.5h-218a5,5,0,0,1-5-5V458c0-19.21,17.15-27.58,29.21-30V410a5,5,0,0,1,10,0v22.25a5,5,0,0,1-4.54,5c-1,.1-24.67,2.64-24.67,20.77v10.5h208V458c0-18.13-23.67-20.67-24.68-20.77a5,5,0,0,1-4.52-5V410a5,5,0,0,1,10,0v18c12.05,2.46,29.2,10.83,29.2,30v15.5A5,5,0,0,1,496.27,478.5Z"/><path d="M472.72,500.5H301.27a15,15,0,0,1-15-15v-12a5,5,0,0,1,10,0v12a5,5,0,0,0,5,5H472.72a5,5,0,0,0,5-5v-12a5,5,0,0,1,10,0v12A15,15,0,0,1,472.72,500.5Z"/><path d="M81,165H49a5,5,0,0,1-5-5V128a5,5,0,0,1,5-5H81a5,5,0,0,1,5,5v32A5,5,0,0,1,81,165ZM54,155H76V133H54Z"/><path d="M81,229H49a5,5,0,0,1-5-5V192a5,5,0,0,1,5-5H81a5,5,0,0,1,5,5v32A5,5,0,0,1,81,229ZM54,219H76V197H54Z"/><path d="M81,292H49a5,5,0,0,1-5-5V255a5,5,0,0,1,5-5H81a5,5,0,0,1,5,5v32A5,5,0,0,1,81,292ZM54,282H76V260H54Z"/><path d="M16,500a5,5,0,0,1-5-5V95.5a5,5,0,0,1,5-5H91.5V15a5,5,0,0,1,5-5H448a5,5,0,0,1,5,5V176a5,5,0,0,1-10,0V20H101.5V95.5a5,5,0,0,1-5,5H21V495A5,5,0,0,1,16,500Z"/><path d="M16,100a5,5,0,0,1-3.54-8.54l80-80a5,5,0,0,1,7.08,7.08l-80,80A5,5,0,0,1,16,100Z"/><path d="M298,500H16a5,5,0,0,1,0-10H298a5,5,0,0,1,0,10Z"/><path d="M342.17,193.55a5,5,0,0,1-2.93-9.05l5.67-4.1a5,5,0,1,1,5.85,8.1l-5.67,4.1A5,5,0,0,1,342.17,193.55Z"/><path d="M469.79,266.44h-19a5,5,0,0,1,0-10h19a5,5,0,0,1,0,10Z"/><path d="M470.18,294.58H470l-19.51-.53a5,5,0,1,1,.27-10l19.52.53a5,5,0,0,1-.14,10Z"/><path d="M467.23,323.9a5.49,5.49,0,0,1-.7,0l-19.45-2.73a5,5,0,1,1,1.39-9.9l19.45,2.72a5,5,0,0,1-.69,10Z"/><path d="M462.38,353.42a4.67,4.67,0,0,1-1.11-.13l-21.65-4.91a5,5,0,1,1,2.21-9.75l21.65,4.91a5,5,0,0,1-1.1,9.88Z"/><path d="M448.13,239.9a5,5,0,0,1-.84-9.92l18.32-3.17a5,5,0,0,1,1.7,9.86L449,239.83A5,5,0,0,1,448.13,239.9Z"/><path d="M442,214.31a5,5,0,0,1-1.83-9.66l17-6.63a5,5,0,1,1,3.64,9.32l-17,6.63A5,5,0,0,1,442,214.31Z"/><path d="M429.45,189.45a5,5,0,0,1-2.52-9.33l16.1-9.34a5,5,0,1,1,5,8.65L432,188.77A5,5,0,0,1,429.45,189.45Z"/><path d="M416.53,165.76a5,5,0,0,1-3.24-8.81L424,147.83a5,5,0,1,1,6.47,7.62l-10.74,9.12A5,5,0,0,1,416.53,165.76Z"/><path d="M420,321.41a5.15,5.15,0,0,1-1.54-.24,5,5,0,0,1-3.22-6.3c20.46-63.4-9.93-110.14-10.24-110.61a5,5,0,0,1,8.31-5.56c1.37,2.05,33.45,51.05,11.45,119.24A5,5,0,0,1,420,321.41Z"/><path d="M452,437.25h-1a5,5,0,0,1,0-10h1a5,5,0,0,1,0,10Zm-21,0h-1a5,5,0,0,1,0-10h1a5,5,0,0,1,0,10Zm-21,0h-1a5,5,0,0,1,0-10h1a5,5,0,0,1,0,10Zm-21,0h-1a5,5,0,0,1,0-10h1a5,5,0,0,1,0,10Zm-21,0h-1a5,5,0,0,1,0-10h1a5,5,0,0,1,0,10Zm-21,0h-1a5,5,0,0,1,0-10h1a5,5,0,0,1,0,10Zm-21,0h-1a5,5,0,0,1,0-10h1a5,5,0,0,1,0,10Z"/><path d="M403,53h-1a5,5,0,0,1,0-10h1a5,5,0,0,1,0,10Zm-21,0h-1a5,5,0,0,1,0-10h1a5,5,0,0,1,0,10Zm-21,0h-1a5,5,0,0,1,0-10h1a5,5,0,0,1,0,10Zm-21,0h-1a5,5,0,0,1,0-10h1a5,5,0,0,1,0,10Zm-21,0h-1a5,5,0,0,1,0-10h1a5,5,0,0,1,0,10Zm-21,0h-1a5,5,0,0,1,0-10h1a5,5,0,0,1,0,10Zm-21,0h-1a5,5,0,0,1,0-10h1a5,5,0,0,1,0,10Zm-21,0h-1a5,5,0,0,1,0-10h1a5,5,0,0,1,0,10Zm-21,0h-1a5,5,0,0,1,0-10h1a5,5,0,0,1,0,10Zm-21,0h-1a5,5,0,0,1,0-10h1a5,5,0,0,1,0,10Zm-21,0h-1a5,5,0,0,1,0-10h1a5,5,0,0,1,0,10Zm-21,0h-1a5,5,0,0,1,0-10h1a5,5,0,0,1,0,10Zm-21,0h-1a5,5,0,0,1,0-10h1a5,5,0,0,1,0,10Zm-21,0h-1a5,5,0,0,1,0-10h1a5,5,0,0,1,0,10Z"/><path d="M214,85h-1a5,5,0,0,1,0-10h1a5,5,0,0,1,0,10Zm-21,0h-1a5,5,0,0,1,0-10h1a5,5,0,0,1,0,10Zm-21,0h-1a5,5,0,0,1,0-10h1a5,5,0,0,1,0,10Zm-21,0h-1a5,5,0,0,1,0-10h1a5,5,0,0,1,0,10Zm-21,0h-1a5,5,0,0,1,0-10h1a5,5,0,0,1,0,10Z"/><path d="M48,387a5,5,0,0,1-2.53-9.31l80-47a5,5,0,0,1,6.95,2l14.71,27.7,91.63-45.82a5,5,0,1,1,4.48,8.94l-96,48a5,5,0,0,1-6.66-2.12L126,342l-75.5,44.36A4.92,4.92,0,0,1,48,387Z"/><path d="M49,468a5,5,0,0,1-5-5V414a5,5,0,0,1,10,0v49A5,5,0,0,1,49,468Z"/><path d="M81,468a5,5,0,0,1-5-5V394a5,5,0,0,1,10,0v69A5,5,0,0,1,81,468Z"/><path d="M113,468a5,5,0,0,1-5-5V379a5,5,0,0,1,10,0v84A5,5,0,0,1,113,468Z"/><path d="M145,468a5,5,0,0,1-5-5V402a5,5,0,0,1,10,0v61A5,5,0,0,1,145,468Z"/><path d="M177,468a5,5,0,0,1-5-5V386a5,5,0,0,1,10,0v77A5,5,0,0,1,177,468Z"/><path d="M209,468a5,5,0,0,1-5-5V372a5,5,0,0,1,10,0v91A5,5,0,0,1,209,468Z"/><path d="M241,468a5,5,0,0,1-5-5V351a5,5,0,0,1,10,0V463A5,5,0,0,1,241,468Z"/><path d="M232,137H113a5,5,0,0,1,0-10H232a5,5,0,0,1,0,10Z"/><path d="M192.33,161H113a5,5,0,0,1,0-10h79.33a5,5,0,1,1,0,10Z"/><path d="M232,201H113a5,5,0,0,1,0-10H232a5,5,0,0,1,0,10Z"/><path d="M192.33,225H113a5,5,0,0,1,0-10h79.33a5,5,0,1,1,0,10Z"/><path d="M232,264H113a5,5,0,0,1,0-10H232a5,5,0,0,1,0,10Z"/><path d="M192.33,288H113a5,5,0,0,1,0-10h79.33a5,5,0,1,1,0,10Z"/></g><text x="0" y="527" fill="#000000" font-size="5px" font-weight="bold" font-family="'Helvetica Neue', Helvetica, Arial-Unicode, Arial, Sans-serif">Created by Jino</text><text x="0" y="532" fill="#000000" font-size="5px" font-weight="bold" font-family="'Helvetica Neue', Helvetica, Arial-Unicode, Arial, Sans-serif">from the Noun Project</text></svg>